<?xml version="1.0" ?><svg id="Layer_1" style="enable-background:new 0 0 100 100;" version="1.1" viewBox="0 0 100 100" xml:space="preserve" xmlns="http://www.w3.org/2000/svg" xmlns:xlink="http://www.w3.org/1999/xlink"><path d="M87.114,39.605h-15.5c-1.104,0-2,0.896-2,2s0.896,2,2,2h15.5c1.104,0,2-0.896,2-2S88.219,39.605,87.114,39.605z"/><path d="M9.058,36.096c3.34,0,6.058-2.713,6.058-6.048S12.397,24,9.058,24S3,26.713,3,30.048S5.718,36.096,9.058,36.096z M9.058,28  c1.135,0,2.058,0.919,2.058,2.048s-0.923,2.048-2.058,2.048S7,31.177,7,30.048S7.923,28,9.058,28z"/><path d="M95,28.05h-4.416C87.535,25.522,83.625,24,79.364,24s-8.171,1.522-11.22,4.05H21.98c-1.104,0-2,0.896-2,2s0.896,2,2,2  h42.617c-1.789,2.755-2.84,6.033-2.84,9.556c0,2.257,0.442,4.409,1.22,6.395H21.98c-1.104,0-2,0.896-2,2s0.896,2,2,2h43.206  c3.208,4.363,8.36,7.212,14.178,7.212c9.708,0,17.605-7.898,17.605-17.606c0-3.523-1.051-6.8-2.84-9.556H95c1.104,0,2-0.896,2-2  S96.104,28.05,95,28.05z M79.364,55.212c-7.503,0-13.606-6.104-13.606-13.606C65.758,34.104,71.861,28,79.364,28  c7.502,0,13.605,6.104,13.605,13.605C92.97,49.108,86.866,55.212,79.364,55.212z"/><path d="M9.058,56.048c3.34,0,6.058-2.713,6.058-6.048s-2.718-6.048-6.058-6.048S3,46.665,3,50S5.718,56.048,9.058,56.048z   M9.058,47.952c1.135,0,2.058,0.919,2.058,2.048s-0.923,2.048-2.058,2.048S7,51.129,7,50S7.923,47.952,9.058,47.952z"/><path d="M9.058,76c3.34,0,6.058-2.713,6.058-6.048s-2.718-6.048-6.058-6.048S3,66.617,3,69.952S5.718,76,9.058,76z M9.058,67.904  c1.135,0,2.058,0.919,2.058,2.048S10.192,72,9.058,72S7,71.081,7,69.952S7.923,67.904,9.058,67.904z"/><path d="M58.488,71.952c1.104,0,2-0.896,2-2s-0.896-2-2-2H21.977c-1.104,0-2,0.896-2,2s0.896,2,2,2H58.488z"/></svg>