<?xml version="1.0" ?><!DOCTYPE svg  PUBLIC '-//W3C//DTD SVG 1.1//EN'  'http://www.w3.org/Graphics/SVG/1.1/DTD/svg11.dtd'><svg height="100%" style="fill-rule:evenodd;clip-rule:evenodd;stroke-linejoin:round;stroke-miterlimit:1.41421;" version="1.1" viewBox="0 0 256 256" width="100%" xml:space="preserve" xmlns="http://www.w3.org/2000/svg" xmlns:serif="http://www.serif.com/" xmlns:xlink="http://www.w3.org/1999/xlink"><path d="M233.798,29.928c10.774,0.205 20.514,9.405 20.729,20.729c0.076,12.048 0.056,24.096 0,36.145c-0.115,8.32 -5.528,15.579 -13.089,19.29c-14.914,7.506 -17.599,33.765 -1.027,43.268c2.377,1.363 4.929,2.455 6.989,4.267c4.42,3.89 7.045,9.697 7.125,15.572c0.056,11.964 0.003,23.929 0.003,35.893c-0.069,10.927 -9.273,20.762 -20.73,20.98c-70.447,0.445 -140.897,0.001 -211.345,0.001c-10.911,-0.068 -20.765,-9.405 -20.98,-20.73c-0.076,-12.048 -0.056,-24.096 0,-36.145c0.114,-8.317 5.544,-15.586 13.089,-19.29c14.916,-7.506 17.598,-33.766 1.027,-43.268c-2.324,-1.332 -4.82,-2.391 -6.847,-4.144c-4.496,-3.885 -7.185,-9.711 -7.268,-15.695c-0.054,-11.964 -0.002,-23.929 -0.002,-35.893c0.069,-10.909 9.405,-20.765 20.73,-20.98c70.531,-0.446 141.065,-0.446 211.596,0Zm-211.307,11.999c-4.706,0.029 -8.926,4.001 -9.018,8.882c-0.076,11.982 -0.163,23.971 0.002,35.965c0.08,3.483 2.32,6.684 5.582,8.166c1.131,0.527 1.19,0.573 1.681,0.835c18.999,10.162 24.499,40.081 9.022,57.33c-3.207,3.573 -7.392,6.136 -11.574,8.374c-2.815,1.539 -4.669,4.617 -4.714,7.83c-0.055,11.961 -0.075,23.922 0.001,35.882c0.088,4.641 4.068,8.79 8.881,8.882c70.429,0.444 140.863,0.444 211.292,0c4.635,-0.089 8.79,-4.069 8.881,-8.882c0.076,-11.982 0.161,-23.971 -0.002,-35.966c-0.08,-3.492 -2.32,-6.683 -5.582,-8.165c-1.136,-0.529 -1.191,-0.573 -1.681,-0.835c-18.902,-10.11 -24.562,-39.696 -9.23,-57.096c3.148,-3.572 7.032,-6.326 11.415,-8.42c3.027,-1.48 5.035,-4.673 5.081,-8.018c0.055,-11.961 0.075,-23.922 -0.001,-35.882c-0.088,-4.641 -4.068,-8.79 -8.881,-8.882c-70.384,-0.445 -140.77,0 -211.155,0Z" style="fill:#1d61e1;fill-rule:nonzero;"/><path d="M128,66.462l14.699,45.238l47.566,0l-38.482,27.959l14.699,45.238l-38.482,-27.959l-38.482,27.959l14.699,-45.238l-38.482,-27.959l47.566,0l14.699,-45.238Z" style="fill:#1d61e1;fill-opacity:0.286275;"/><path d="M128.538,60.486c2.349,0.318 4.316,1.851 5.168,4.122l13.352,41.092l43.207,0c0,0 4.186,0.527 5.517,3.642c1.057,2.471 0.168,5.491 -1.99,7.212l-34.955,25.397l13.351,41.092c0,0 0.68,3.857 -1.369,6c-1.983,2.074 -5.409,2.329 -7.864,0.708l-34.955,-25.396l-34.955,25.396c0,0 -2.578,1.632 -5.123,0.93c-3.1,-0.856 -4.994,-4.435 -4.11,-7.638l13.351,-41.092l-34.955,-25.397c0,0 -2.837,-2.574 -2.419,-5.659c0.338,-2.491 2.394,-4.648 4.875,-5.099c0.471,-0.085 0.594,-0.075 1.071,-0.096l43.207,0l13.352,-41.092c0,0 2.346,-4.297 6.244,-4.122Zm-9.53,53.068c-0.902,2.403 -3.109,4.029 -5.707,4.146l-29.1,0l23.543,17.105c0,0 3.134,3.248 2.179,6.708l-8.992,27.676l23.542,-17.105c0,0 4.058,-1.977 7.054,0l23.542,17.105l-8.992,-27.676c0,0 -0.627,-4.471 2.179,-6.708l23.543,-17.105l-29.1,0c0,0 -4.445,-0.786 -5.707,-4.146l-8.992,-27.676c-2.997,9.226 -5.995,18.451 -8.992,27.676Z" style="fill:#1d61e1;fill-rule:nonzero;"/></svg>