<?xml version="1.0" ?><svg viewBox="0 0 64 64" xmlns="http://www.w3.org/2000/svg"><g id="Contract_sign"><path d="M14.7771,14.9692V4.1411L2.6374,16.2817H13.4646A1.3141,1.3141,0,0,0,14.7771,14.9692Z"/><path d="M41.0149,45.4367,38.324,37.605a2.6993,2.6993,0,0,1,.0752-1.9491L43.45,23.9777V7.3891A4.041,4.041,0,0,0,39.4128,3.352H17.4763V14.9692a4.0164,4.0164,0,0,1-4.0117,4.0117H1.8474V56.4291a4.0411,4.0411,0,0,0,4.0371,4.0372H39.4128A4.0411,4.0411,0,0,0,43.45,56.4291V47.2473a2.6583,2.6583,0,0,1-2.435-1.8106ZM26.3982,51.1752H22.4626a4.3187,4.3187,0,0,1-4.289-3.8623l-5.3994,3.6328a1.35,1.35,0,1,1-1.5079-2.24l5.9786-4.0215a2.3139,2.3139,0,0,1,3.6054,1.92v.26a1.6146,1.6146,0,0,0,1.6123,1.6123h3.9356a1.35,1.35,0,1,1,0,2.6992Zm0-11.7236H10.9958a1.35,1.35,0,1,1,0-2.6992H26.3982a1.35,1.35,0,0,1,0,2.6992Zm7.9033,11.7236H31.8044a1.35,1.35,0,0,1,0-2.6992h2.4971a1.35,1.35,0,0,1,0,2.6992Zm0-18.417H10.9958a1.35,1.35,0,1,1,0-2.6992H34.3015a1.35,1.35,0,1,1,0,2.6992Zm0-6.6933H10.9958a1.35,1.35,0,1,1,0-2.6992H34.3015a1.35,1.35,0,1,1,0,2.6992Z"/><path d="M58.5452,9.93a5.5788,5.5788,0,0,0-7.335,2.9057l-.2761.6389h0l10.24,4.43.2766-.6395A5.5788,5.5788,0,0,0,58.5452,9.93Z"/><polygon points="42.206 33.657 42.206 33.657 52.446 38.085 60.102 20.383 49.862 15.954 42.206 33.657"/><polygon points="41.134 36.135 40.877 36.728 43.568 44.559 51.118 41.157 51.374 40.564 51.374 40.564 41.134 36.135"/></g></svg>