<?xml version="1.0" ?><svg style="enable-background:new 0 0 24 24;" version="1.1" viewBox="0 0 24 24" xml:space="preserve" xmlns="http://www.w3.org/2000/svg" xmlns:xlink="http://www.w3.org/1999/xlink"><style type="text/css">
	.st0{opacity:0.2;fill:none;stroke:#000000;stroke-width:5.000000e-02;stroke-miterlimit:10;}
</style><g id="grid_system"/><g id="_icons"><g><circle cx="12" cy="17.5" r="1.5"/><path d="M19.9,18.5l0.8-0.8c0.4-0.4,0.4-1,0-1.4s-1-0.4-1.4,0l-0.8,0.8l-0.8-0.8c-0.4-0.4-1-0.4-1.4,0s-0.4,1,0,1.4l0.8,0.8    l-0.8,0.8c-0.4,0.4-0.4,1,0,1.4c0.2,0.2,0.5,0.3,0.7,0.3s0.5-0.1,0.7-0.3l0.8-0.8l0.8,0.8c0.2,0.2,0.5,0.3,0.7,0.3    s0.5-0.1,0.7-0.3c0.4-0.4,0.4-1,0-1.4L19.9,18.5z"/><path d="M12,12.2c-1.4,0-2.7,0.6-3.6,1.6c-0.4,0.4-0.4,1,0,1.4c0.4,0.4,1,0.4,1.4,0c1.2-1.3,3.2-1.3,4.3,0    c0.2,0.2,0.5,0.3,0.7,0.3c0.2,0,0.5-0.1,0.7-0.3c0.4-0.4,0.4-1,0-1.4C14.7,12.8,13.4,12.2,12,12.2z"/><path d="M16.8,12.2c0.2,0.2,0.4,0.3,0.7,0.3c0.3,0,0.5-0.1,0.7-0.3c0.4-0.4,0.4-1,0-1.4c-1.7-1.6-3.9-2.5-6.1-2.5    s-4.5,0.9-6.1,2.5c-0.4,0.4-0.4,1,0,1.4c0.4,0.4,1,0.4,1.4,0c1.3-1.3,3-2,4.8-2S15.4,10.9,16.8,12.2z"/><path d="M19.3,9.2c0.2,0.2,0.4,0.3,0.7,0.3c0.3,0,0.5-0.1,0.7-0.3c0.4-0.4,0.3-1-0.1-1.4c-2.4-2.2-5.5-3.4-8.7-3.4    S5.8,5.5,3.3,7.7c-0.4,0.4-0.4,1-0.1,1.4c0.4,0.4,1,0.4,1.4,0.1C6.8,7.3,9.3,6.3,12,6.3S17.2,7.3,19.3,9.2z"/></g></g></svg>