<?xml version="1.0" ?><svg enable-background="new 0 0 100 100" id="Layer_1" version="1.1" viewBox="0 0 100 100" xml:space="preserve" xmlns="http://www.w3.org/2000/svg" xmlns:xlink="http://www.w3.org/1999/xlink"><g><path d="M92.07,63.059c-1.467-1.476-3.269-2.558-5.226-3.209V41.734c0-1.733-1.41-3.144-3.145-3.144H70.139l10.961-29.29   c0.115-0.308,0.072-0.651-0.115-0.921c-0.187-0.269-0.493-0.43-0.821-0.43h-5.805c-0.417,0-0.79,0.259-0.937,0.649L62.198,38.591   h-4.471l-0.675-0.675c1.396-4.726,0.13-9.757-3.378-13.264c-3.104-3.104-7.55-4.485-11.894-3.706   c-0.366,0.066-0.665,0.33-0.776,0.686c-0.111,0.354-0.017,0.742,0.247,1.005l6.176,6.188l-1.182,7.394l-7.381,1.181l-6.187-6.187   c-0.263-0.264-0.65-0.359-1.005-0.247c-0.355,0.11-0.619,0.409-0.686,0.774c-0.418,2.292-0.217,4.673,0.542,6.852h-2.883   L17.422,8.6c-0.146-0.391-0.52-0.649-0.937-0.649H10.68c-0.328,0-0.635,0.161-0.822,0.43c-0.187,0.27-0.229,0.613-0.115,0.921   l10.962,29.29H7.145C5.411,38.591,4,40.001,4,41.734v41.008c0,1.733,1.411,3.144,3.145,3.144h3.951v2.727   c0,1.896,1.542,3.438,3.438,3.438h4.873c1.896,0,3.438-1.542,3.438-3.438v-2.727h45.159v2.727c0,1.896,1.542,3.438,3.438,3.438   h4.872c1.896,0,3.438-1.542,3.438-3.438v-2.727h1.537c0.367,0.035,0.741,0.057,1.129,0.057c0.408,0,0.831-0.021,1.273-0.059   c0.004,0,0.008,0.002,0.012,0.002c0.067,0,0.129-0.004,0.184-0.011c0.2,0,0.365-0.039,0.407-0.054l0.18-0.017   c0.165-0.015,0.331-0.03,0.496-0.056c0.354-0.056,0.645-0.301,0.773-0.633c0.69-0.587,1.103-1.444,1.103-2.373V69.464l1.062-0.17   l6.187,6.186c0.263,0.264,0.648,0.359,1.006,0.247c0.355-0.111,0.619-0.41,0.686-0.776C96.569,70.604,95.18,66.157,92.07,63.059z    M75.053,9.95h3.669L68.004,38.591h-3.67L75.053,9.95z M62.892,40.591h5.806H83.7c0.631,0,1.145,0.513,1.145,1.144v17.585   c-0.047-0.008-0.095-0.009-0.142-0.016c-0.452-0.073-0.905-0.13-1.359-0.156c-0.023-0.001-0.046-0.001-0.07-0.002   c-0.437-0.023-0.874-0.019-1.31,0.001c-0.084,0.004-0.167,0.006-0.251,0.011c-0.439,0.028-0.876,0.079-1.311,0.151   c-0.085,0.014-0.17,0.031-0.255,0.047c-0.45,0.083-0.899,0.182-1.342,0.312L59.728,40.591H62.892z M12.122,9.95h3.67l10.719,28.641   h-3.67L12.122,9.95z M6,82.742V41.734c0-0.631,0.514-1.144,1.145-1.144h15.002h5.806h4.453c0.043,0.079,0.094,0.155,0.139,0.234   c0.066,0.114,0.133,0.227,0.202,0.34c0.115,0.188,0.237,0.373,0.362,0.555c0.072,0.106,0.144,0.211,0.219,0.315   c0.141,0.194,0.29,0.383,0.443,0.57c0.069,0.085,0.135,0.173,0.207,0.257c0.228,0.268,0.465,0.53,0.716,0.784   c3.505,3.495,8.533,4.763,13.261,3.376l21.753,21.754c-1.384,4.725-0.118,9.755,3.377,13.262c0.318,0.318,0.654,0.612,1.001,0.895   c0.111,0.091,0.227,0.175,0.341,0.262c0.243,0.185,0.491,0.362,0.746,0.53c0.077,0.051,0.148,0.112,0.227,0.161h-6.397H21.843   h-9.748H7.145C6.514,83.886,6,83.373,6,82.742z M20.843,88.612c0,0.793-0.645,1.438-1.438,1.438h-4.873   c-0.792,0-1.438-0.645-1.438-1.438v-2.727h7.748V88.612z M77.749,88.612c0,0.793-0.645,1.438-1.438,1.438h-4.872   c-0.793,0-1.438-0.645-1.438-1.438v-2.727h7.747V88.612z M84.845,69.786v12.956c0,0.182-0.044,0.356-0.124,0.512l-5.388-5.389   l1.181-7.391L84.845,69.786z M88.959,67.518c-0.226-0.228-0.545-0.333-0.867-0.28l-8.608,1.376   c-0.427,0.067-0.762,0.402-0.83,0.829l-1.376,8.611c-0.051,0.317,0.054,0.639,0.28,0.865l4.966,4.967h-1.166   c-2.622-0.27-4.993-1.397-6.857-3.261c-3.101-3.111-4.139-7.633-2.709-11.802c0.123-0.361,0.031-0.762-0.239-1.031L48.938,45.179   c-0.085-0.085-0.186-0.146-0.292-0.195c-0.029-0.013-0.058-0.023-0.088-0.034c-0.089-0.031-0.18-0.049-0.275-0.054   c-0.018-0.001-0.034-0.01-0.052-0.01c-0.007,0-0.015,0.003-0.022,0.004c-0.102,0.002-0.204,0.016-0.303,0.05   c-4.166,1.431-8.689,0.393-11.796-2.704c-0.913-0.923-1.652-1.96-2.197-3.083c-0.757-1.552-1.146-3.282-1.144-5.021l5.042,5.042   c0.227,0.227,0.548,0.334,0.865,0.28l8.6-1.376c0.426-0.068,0.761-0.402,0.829-0.829l1.376-8.612   c0.051-0.316-0.053-0.638-0.28-0.864l-5.032-5.041c0.004,0,0.007,0,0.011,0c3.009,0,5.924,1.181,8.078,3.335   c3.111,3.111,4.149,7.632,2.709,11.799c-0.125,0.361-0.032,0.763,0.238,1.033l1.396,1.396c0.001,0.001,0.002,0.003,0.003,0.004   l21.215,21.214c0.085,0.085,0.186,0.146,0.292,0.195c0.029,0.014,0.058,0.023,0.089,0.034c0.089,0.031,0.18,0.049,0.274,0.054   c0.018,0.001,0.034,0.01,0.052,0.01c0.007,0,0.015-0.004,0.022-0.004c0.102-0.002,0.205-0.016,0.304-0.051   c2.057-0.708,4.242-0.808,6.356-0.307c0.124,0.029,0.248,0.053,0.371,0.087c0.001,0,0.001,0,0.002,0   c0.001,0,0.003,0.001,0.004,0.001c1.911,0.511,3.662,1.526,5.067,2.941c2.162,2.155,3.347,5.073,3.345,8.086L88.959,67.518z"/><path d="M56.863,42.386c-1.104-1.104-2.899-1.103-4.004,0l-0.38,0.38c0,0,0,0-0.001,0c-1.103,1.104-1.103,2.9,0.001,4.004   l17.479,17.479c0.552,0.552,1.276,0.827,2.001,0.827c0.726,0,1.45-0.275,2.003-0.827l0.381-0.38c1.103-1.104,1.103-2.9-0.001-4.004   L56.863,42.386z M72.929,62.455l-0.38,0.379c-0.324,0.326-0.852,0.325-1.176,0.001L53.894,45.355   c-0.324-0.324-0.323-0.852,0.001-1.176l0.379-0.379c0.324-0.326,0.852-0.325,1.176-0.001l17.479,17.479   C73.253,61.604,73.252,62.131,72.929,62.455z"/><path d="M36.711,72.104c0.178-0.31,0.178-0.69,0-1l-12.8-22.17c-0.357-0.619-1.375-0.619-1.732,0l-12.8,22.17   c-0.178,0.31-0.178,0.69,0,1c0.179,0.31,0.509,0.5,0.866,0.5h25.6C36.203,72.604,36.533,72.413,36.711,72.104z M11.978,70.604   l11.068-19.17l11.068,19.17H11.978z"/><path d="M22.045,56.948v6.964c0,0.553,0.448,1,1,1s1-0.447,1-1v-6.964c0-0.553-0.448-1-1-1S22.045,56.396,22.045,56.948z"/><path d="M23.045,65.908c-0.552,0-1,0.447-1,1v0.891c0,0.553,0.448,1,1,1s1-0.447,1-1v-0.891   C24.045,66.355,23.598,65.908,23.045,65.908z"/><path d="M59.938,79.436h5.906c0.553,0,1-0.447,1-1v-4.873c0-0.553-0.447-1-1-1h-5.906c-0.553,0-1,0.447-1,1v4.873   C58.938,78.988,59.386,79.436,59.938,79.436z M60.938,74.563h3.906v2.873h-3.906V74.563z"/><path d="M47.823,79.436h5.906c0.553,0,1-0.447,1-1v-4.873c0-0.553-0.447-1-1-1h-5.906c-0.552,0-1,0.447-1,1v4.873   C46.823,78.988,47.271,79.436,47.823,79.436z M48.823,74.563h3.906v2.873h-3.906V74.563z"/></g></svg>