<?xml version="1.0" ?><!DOCTYPE svg  PUBLIC '-//W3C//DTD SVG 1.1//EN'  'http://www.w3.org/Graphics/SVG/1.1/DTD/svg11.dtd'><svg enable-background="new 0 0 26 26" id="Слой_1" version="1.1" viewBox="0 0 26 26" xml:space="preserve" xmlns="http://www.w3.org/2000/svg" xmlns:xlink="http://www.w3.org/1999/xlink"><g><path d="M24.8935547,12.5195313C22.2988281,8.1835938,18.6308594,6.25,13,6.25   S3.7011719,8.1835938,1.1064453,12.5195313C1.0161743,12.6702881,0.9967041,12.838501,1.0179443,13   c-0.0212402,0.161499-0.00177,0.3297119,0.088501,0.4804688C3.7011719,17.8164063,7.3691406,19.75,13,19.75   s9.2988281-1.9335938,11.8935547-6.2695313C24.9838257,13.3297119,25.0032959,13.161499,24.9820557,13   C25.0032959,12.838501,24.9838257,12.6702881,24.8935547,12.5195313z M13,17.5c-2.4814453,0-4.5-2.0185547-4.5-4.5   s2.0185547-4.5,4.5-4.5s4.5,2.0185547,4.5,4.5S15.4814453,17.5,13,17.5z M2.5728149,13   c1.3046875-2.0955811,3.2023315-4.1636963,7.0197144-4.9327393C8.0281982,9.1512451,7,10.9567871,7,13   s1.0281982,3.8487549,2.5925293,4.9327393C5.7751465,17.1636963,3.8775024,15.0955811,2.5728149,13z M16.4074707,17.9327393   C17.9718018,16.8487549,19,15.0432129,19,13s-1.0281982-3.8487549-2.5925293-4.9327393   C20.2248535,8.8363037,22.1224976,10.9044189,23.4271851,13C22.1224976,15.0955811,20.2248535,17.1636963,16.4074707,17.9327393z" fill="#1D1D1B"/><path d="M15.1123047,12.1308594L15,12.1445313c-0.7480469,0-1.3701172-0.5888672-1.4150391-1.3408203   c-0.0126953-0.2001953-0.1044922-0.3876953-0.2558594-0.5195313c-0.1523438-0.1318359-0.3505859-0.1884766-0.5507813-0.1826172   C11.2666016,10.2177734,10.0830078,11.4912109,10.0830078,13c0,1.6083984,1.3085938,2.9169922,2.9169922,2.9169922   S15.9169922,14.6083984,15.9169922,13c0-0.0605469-0.0058594-0.1201172-0.0146484-0.1748047   C15.8720703,12.4169922,15.4892578,12.1064453,15.1123047,12.1308594z" fill="#1D1D1B"/></g></svg>