<?xml version="1.0" ?><svg id="Layer_1_1_" style="enable-background:new 0 0 128 128;" version="1.1" viewBox="0 0 128 128" xml:space="preserve" xmlns="http://www.w3.org/2000/svg" xmlns:xlink="http://www.w3.org/1999/xlink"><g><path d="M107,29H77v-6h-4v-4h-4v-5c0-7.168-5.832-13-13-13H37c-7.168,0-13,5.832-13,13v43h-4v4h-2v6.649l-4,5V87h2v8h7h9h6v-8h2   V72.649l-4-5V61h-2v-4h-4V14c0-3.859,3.14-7,7-7h19c3.86,0,7,3.141,7,7v5h-4v4h-4v6h-6c-2.757,0-5,2.243-5,5v88   c0,2.757,2.243,5,5,5h58c2.757,0,5-2.243,5-5V34C112,31.243,109.757,29,107,29z M106,87h4v14.613l-3.316-1.105   c-0.409-0.137-0.684-0.519-0.684-0.949V87z M110,85h-4V72.441c0-0.431,0.275-0.812,0.684-0.949L110,70.387V85z M22,59h4v2h-4V59z    M16,73.351l4-5V63h8v5.351l4,5V85H16V73.351z M23,93h-5v-6h12v6H23z M36,93h-4v-6h1h1h2V93z M38,73.351V85h-4V72.649l-4-5V63h4   v5.351L38,73.351z M32,61h-2h-1h-1v-2h4V61z M56,5H37c-4.962,0-9,4.037-9,9v43h-1h-1V14c0-6.065,4.935-11,11-11h19   c6.065,0,11,4.935,11,11v5h-2v-5C65,9.037,60.962,5,56,5z M61,21h10v2H61V21z M57,25h18v4H57V25z M49,125c-1.654,0-3-1.346-3-3V34   c0-1.654,1.346-3,3-3h46c1.654,0,3,1.346,3,3v76h-2c-1.654,0-3,1.346-3,3s1.346,3,3,3h2v6c0,1.654-1.346,3-3,3H49z M96,114   c-0.551,0-1-0.448-1-1s0.449-1,1-1h6c0.551,0,1,0.448,1,1s-0.449,1-1,1H96z M107,125h-8.026c0.635-0.838,1.026-1.87,1.026-3v-6h2   c1.654,0,3-1.346,3-3s-1.346-3-3-3h-2V34c0-1.13-0.391-2.162-1.026-3H107c1.654,0,3,1.346,3,3v34.28l-3.949,1.316   c-1.227,0.409-2.051,1.553-2.051,2.846v27.117c0,1.293,0.824,2.437,2.051,2.846L110,103.72V122C110,123.654,108.654,125,107,125z"/><path d="M105,46c1.654,0,3-1.346,3-3s-1.346-3-3-3s-3,1.346-3,3S103.346,46,105,46z M105,42c0.551,0,1,0.448,1,1s-0.449,1-1,1   s-1-0.448-1-1S104.449,42,105,42z"/><path d="M105,54c1.654,0,3-1.346,3-3s-1.346-3-3-3s-3,1.346-3,3S103.346,54,105,54z M105,50c0.551,0,1,0.448,1,1s-0.449,1-1,1   s-1-0.448-1-1S104.449,50,105,50z"/><path d="M108,59c0-1.654-1.346-3-3-3s-3,1.346-3,3s1.346,3,3,3S108,60.654,108,59z M104,59c0-0.552,0.449-1,1-1s1,0.448,1,1   s-0.449,1-1,1S104,59.552,104,59z"/><rect height="2" width="12" x="64" y="111"/><rect height="2" width="12" x="50" y="111"/><rect height="2" width="12" x="64" y="115"/><rect height="2" width="12" x="50" y="115"/><rect height="2" width="12" x="64" y="119"/><rect height="2" width="12" x="50" y="119"/><path d="M74,97H52c-1.103,0-2,0.897-2,2v8c0,1.103,0.897,2,2,2h22c1.103,0,2-0.897,2-2v-8C76,97.897,75.103,97,74,97z M74,107H52   v-8h22V107z"/><rect height="2" width="2" x="62" y="102"/><rect height="2" width="2" x="58" y="102"/><rect height="2" width="2" x="66" y="102"/><rect height="2" width="2" x="20" y="89"/><rect height="2" width="2" x="26" y="89"/><rect height="2" width="12" x="18" y="73"/><rect height="2" width="12" x="18" y="77"/><rect height="2" width="12" x="18" y="81"/></g></svg>